Coordinates
version=1
nRows=9
nColumns=63
inDegrees=yes

Units are S.I. units (second, meters, Newtons, ...)
If the header above contains a line with 'inDegrees', this indicates whether rotational values are in degrees (yes) or radians (no).

endheader
time	pelvis_tilt	pelvis_list	pelvis_rotation	pelvis_tx	pelvis_ty	pelvis_tz	hip_flexion_r	hip_adduction_r	hip_rotation_r	knee_angle_r	knee_angle_r_beta	ankle_angle_r	subtalar_angle_r	mtp_angle_r	hip_flexion_l	hip_adduction_l	hip_rotation_l	knee_angle_l	knee_angle_l_beta	ankle_angle_l	subtalar_angle_l	mtp_angle_l	L5_S1_Flex_Ext	L5_S1_Lat_Bending	L5_S1_axial_rotation	L4_L5_Flex_Ext	L4_L5_Lat_Bending	L4_L5_axial_rotation	L3_L4_Flex_Ext	L3_L4_Lat_Bending	L3_L4_axial_rotation	L2_L3_Flex_Ext	L2_L3_Lat_Bending	L2_L3_axial_rotation	L1_L2_Flex_Ext	L1_L2_Lat_Bending	L1_L2_axial_rotation	L1_T12_Flex_Ext	L1_T12_Lat_Bending	L1_T12_axial_rotation	Abs_r3	Abs_r2	Abs_r1	Abs_t1	Abs_t2	neck_flexion	neck_bending	neck_rotation	arm_flex_r	arm_add_r	arm_rot_r	elbow_flex_r	pro_sup_r	wrist_flex_r	wrist_dev_r	arm_flex_l	arm_add_l	arm_rot_l	elbow_flex_l	pro_sup_l	wrist_flex_l	wrist_dev_l
      0.86440678	     -1.20883653	      6.08233742	     90.06291284	      0.23196544	      0.84896689	      0.49851390	    -11.39650784	     -0.56592970	     21.13697707	      1.25284956	      0.02186635	     36.56184261	    -13.84058124	      0.00000000	     -6.78756673	     -0.56766739	     20.33327884	      4.89178889	      0.08537782	     40.49336345	    -15.67484845	      0.00000000	     -0.32749517	     -0.33009456	     -0.32653471	     -0.60819128	     -0.43902576	     -0.34694313	     -0.53804182	     -0.80259191	     -0.34694313	     -0.37429423	     -0.80259191	     -0.28571787	     -0.30411202	     -0.67312882	     -0.26530945	     -0.18713074	     -0.51131647	     -0.24490103	     -2.33926526	     -3.73409565	     -1.81608809	      0.00000000	      0.00000000	     19.86217906	      4.04677386	     -1.49977790	      3.08843456	    -13.68962604	     95.73672293	     15.03735986	      4.55266421	     -3.25771705	     -1.73133866	      0.19908618	    -18.06062019	    118.66359499	     10.82730758	      4.58768296	     -6.09485616	    -10.69955259
      0.88135593	     -1.04735921	      5.80427856	     90.18985255	      0.23091008	      0.84900127	      0.50021383	    -10.91315853	     -0.45325143	     21.09285261	      1.29870425	      0.02266667	     36.30639770	    -13.88353665	      0.00000000	     -6.23444453	     -0.65276144	     20.49290754	      5.17462945	      0.09031432	     40.04998630	    -15.57399105	      0.00000000	     -0.29466872	     -0.28620403	     -0.30788712	     -0.54722929	     -0.38065135	     -0.32713006	     -0.48411125	     -0.69587647	     -0.32713006	     -0.33677688	     -0.69587647	     -0.26940123	     -0.27362938	     -0.58362725	     -0.25015828	     -0.16837371	     -0.44333004	     -0.23091534	     -2.10478922	     -3.23759718	     -1.71237578	      0.00000000	      0.00000000	     19.56716028	      3.47935446	     -1.40341829	      3.91093349	    -14.37639835	     95.89539051	     15.12833836	      4.87479815	     -3.23176268	     -2.83678344	      1.21946571	    -18.15480998	    118.31743264	     11.52764446	      4.46069541	     -5.78334839	    -11.15827686
      0.89830508	     -0.91705182	      5.43941335	     90.30057298	      0.22984693	      0.84890296	      0.50275479	    -10.25202813	     -0.36290384	     20.95100626	      1.47372618	      0.02572137	     36.02009733	    -14.03369521	      0.00000000	     -5.43207818	     -0.65863651	     20.51816450	      5.72375338	      0.09989834	     39.48946868	    -15.65237554	      0.00000000	     -0.25489405	     -0.24825168	     -0.29112162	     -0.47336374	     -0.33017474	     -0.30931672	     -0.41876544	     -0.60359914	     -0.30931672	     -0.29131841	     -0.60359914	     -0.25473141	     -0.23669462	     -0.50623483	     -0.23653631	     -0.14564646	     -0.38454185	     -0.21834121	     -1.82068271	     -2.80827267	     -1.61913109	      0.00000000	      0.00000000	     19.19278522	      2.89505654	     -1.50027926	      5.08946975	    -15.16597227	     96.38840775	     15.40650648	      5.57536865	     -3.08750127	     -4.29665850	      2.26834382	    -18.15822895	    118.04810806	     11.95255500	      4.60249351	     -5.74996818	    -11.97046175
      0.91525424	     -0.86417255	      4.97785757	     90.33204988	      0.22910675	      0.84887656	      0.50618297	     -9.35721671	     -0.32640782	     20.75551733	      1.82812087	      0.03190673	     35.74607086	    -14.24584087	      0.00000000	     -4.39247460	     -0.56571753	     20.31767482	      6.49592402	      0.11337526	     38.77996520	    -15.93074449	      0.00000000	     -0.20852051	     -0.22957100	     -0.27559688	     -0.38724344	     -0.30532943	     -0.29282169	     -0.34257835	     -0.55817892	     -0.29282169	     -0.23831809	     -0.55817892	     -0.24114727	     -0.19363215	     -0.46814118	     -0.22392247	     -0.11914862	     -0.35560548	     -0.20669766	     -1.48944117	     -2.59695304	     -1.53278718	      0.00000000	      0.00000000	     18.73884789	      2.48904468	     -1.84952693	      6.62979891	    -15.91393849	     97.30814191	     15.78693818	      6.76104028	     -2.80041843	     -5.85484869	      3.32273171	    -18.06545467	    118.46246832	     11.81880656	      5.36202330	     -6.29939564	    -13.36039712
      0.93220339	     -0.85532843	      4.40521285	     90.25181218	      0.22866076	      0.84922191	      0.51060879	     -8.15644809	     -0.31767466	     20.53316284	      2.44079889	      0.04259998	     35.37783739	    -14.38433135	      0.00000000	     -3.12572044	     -0.42453060	     19.72872690	      7.37640442	      0.12874254	     37.92552586	    -16.28361385	      0.00000000	     -0.15682716	     -0.22335312	     -0.26932954	     -0.29124371	     -0.29705965	     -0.28616264	     -0.25765134	     -0.54306078	     -0.28616264	     -0.17923776	     -0.54306078	     -0.23566335	     -0.14562970	     -0.45546168	     -0.21883025	     -0.08961104	     -0.34597398	     -0.20199715	     -1.12020069	     -2.52661518	     -1.49793010	      0.00000000	      0.00000000	     18.20025113	      2.25149975	     -2.20103901	      8.51782989	    -16.62677160	     98.46550376	     16.21982275	      8.54520289	     -2.49233700	     -7.51977445	      4.48540165	    -17.80667838	    120.32144696	     10.99085497	      6.82739817	     -7.78478573	    -15.58415436
      0.94915254	     -0.85322827	      3.73389444	     89.97186283	      0.22809191	      0.85013839	      0.51557987	     -6.68698044	     -0.34589979	     19.88642898	      3.28856611	      0.05739631	     35.01077978	    -13.87622159	      0.00000000	     -1.78755295	     -0.28937783	     18.48511181	      8.13352440	      0.14195678	     37.06438865	    -16.25256597	      0.00000000	     -0.09913253	     -0.21122202	     -0.27404770	     -0.18409901	     -0.28092529	     -0.29117569	     -0.16286483	     -0.51356523	     -0.29117569	     -0.11329856	     -0.51356523	     -0.23979174	     -0.09205446	     -0.43072395	     -0.22266376	     -0.05664432	     -0.32718291	     -0.20553578	     -0.70809371	     -2.38938576	     -1.52417111	      0.00000000	      0.00000000	     17.59242289	      2.11899723	     -2.16502555	     10.32816975	    -17.90882936	     95.52729171	     17.68913030	     13.79844308	     -2.86900116	     -8.89064345	      5.42352900	    -16.11960656	    136.52804714	      5.93289294	      2.52288212	     -9.59488233	    -17.31331057
      0.96610169	     -0.85047170	      3.08466870	     89.49731577	      0.22741001	      0.85165567	      0.52081934	     -5.15668509	     -0.39403410	     19.64440767	      4.27228211	      0.07456539	     34.36149897	    -13.64477605	      0.00000000	     -0.48342828	     -0.15584733	     16.90433025	      8.83638411	      0.15422400	     36.36486688	    -16.09773759	      0.00000000	     -0.04552925	     -0.18491663	     -0.32657349	     -0.08455236	     -0.24593911	     -0.34698434	     -0.07480000	     -0.44960629	     -0.34698434	     -0.05203538	     -0.44960629	     -0.28575181	     -0.04227846	     -0.37708198	     -0.26534096	     -0.02601541	     -0.28643585	     -0.24493012	     -0.32521085	     -2.09181386	     -1.81630380	      0.00000000	      0.00000000	     16.88129500	      2.19958785	     -1.05382000	     12.50101464	    -19.49784482	     93.01856060	     19.85191672	     18.59315924	     -3.90029772	    -11.03757459	      5.99310405	    -15.30401903	    145.67204614	      2.26734228	      2.08915662	    -14.68987835	    -18.76933118
      0.98305085	     -0.54120791	      2.45950473	     88.88190822	      0.22574503	      0.85340056	      0.52529773	     -3.77667593	     -0.21580704	     19.08736106	      5.10847582	      0.08915972	     33.59324701	    -12.77891683	      0.00000000	      0.60825755	     -0.31954739	     15.49757300	      9.25538725	      0.16153698	     36.03501885	    -15.98902050	      0.00000000	      0.00081315	     -0.08834972	     -0.14427675	      0.00151011	     -0.11750513	     -0.15329405	      0.00133593	     -0.21481351	     -0.15329405	      0.00092935	     -0.21481351	     -0.12624216	      0.00075509	     -0.18016275	     -0.11722486	      0.00046464	     -0.13685371	     -0.10820756	      0.00580828	     -0.99942968	     -0.80242400	      0.00000000	      0.00000000	     16.33399892	      1.12895607	     -0.49218820	      8.14291590	    -22.90518883	     57.44961015	     27.36665783	     51.32211325	     -6.32969056	     -5.77077417	      8.09273778	    -14.53950517	    151.70053777	      0.80311301	      1.81965046	    -20.34837813	    -20.23980379
      1.00000000	     -0.33841553	      2.03990500	     88.25106962	      0.22418994	      0.85609366	      0.52980694	     -2.65603769	     -0.14781986	     18.35097749	      5.89542611	      0.10289460	     32.70169850	    -11.60179597	      0.00000000	      1.44202067	     -0.39878621	     14.01222871	      9.56633016	      0.16696396	     35.77224655	    -15.68987985	      0.00000000	      0.03254217	     -0.00249106	      0.01265495	      0.06043407	     -0.00331311	      0.01344588	      0.05346354	     -0.00605676	      0.01344588	      0.03719245	     -0.00605676	      0.01107308	      0.03021866	     -0.00507977	      0.01028214	      0.01859460	     -0.00385865	      0.00949121	      0.23244549	     -0.02817935	      0.07038302	      0.00000000	      0.00000000	     15.30606639	      0.24728193	      0.42703484	      7.09132355	    -25.09312290	     47.84194299	     32.57234663	     56.89517682	     -7.03603911	     -6.38759223	     10.71722068	    -13.89168205	    154.11809503	      0.48406655	      1.75347794	    -27.58118745	    -22.12308466
